<svg width="169" height="29" viewBox="0 0 169 29" fill="none" xmlns="http://www.w3.org/2000/svg">
<path fill-rule="evenodd" clip-rule="evenodd" d="M2 1L20.2535 19.0541V21.5946H18.9419V23.6486L19.5977 23H20.906L20.9093 24.2432L20.1988 24.9459H22.2209L22.8221 26.0811L25.4727 28L28.1233 26.0811L28.7244 24.9459H30.8012L30.0907 24.2432V23H31.4023L32.0581 23.6486V21.5946H30.7465V19.0541L49 1H35.1707L31.9488 4.18919V7.53367L31.4023 8.08108H28.1233V5.59459L30.036 3.75676V3.59459H28.6698L27.4128 4.89189H26.8663V4.24324L28.7244 2.40541H29.3802V2.24324L28.1233 1H27.2488L25.336 2.94595H23.4779L22.8221 3.59459V8.08108H19.5977L19.0512 7.54054V4.18919L15.8267 1H2ZM22.2209 10.7297L20.964 9.48649V16.6216C21.1915 17.1024 21.3291 17.3662 21.6198 17.8108C22.3379 18.6055 22.7577 19.0197 23.5326 19.7027C23.8047 19.8732 23.9376 19.9647 24.7349 20.2432C24.86 20.2929 25.0935 20.5672 25.4727 21C25.8555 20.5327 26.0596 20.2898 26.2105 20.2432C27.0192 19.9348 27.0985 19.8692 27.4128 19.7027C28.1992 19.0071 28.6321 18.5982 29.3802 17.8108C29.6482 17.3699 29.7782 17.1083 29.9814 16.6216V9.54054L28.7791 10.7297H26.757L25.5 9.48649L24.243 10.7297H22.2209Z" fill="#D01765"/>
<path d="M22.8221 15.8649L26.8116 11.9189H28.1233V13.2162L24.1337 17.1622H22.8221V15.8649Z" fill="#D01765"/>
<path d="M2 1V0.5H0.783454L1.64839 1.35549L2 1ZM20.2535 19.0541H20.7535V18.8453L20.6051 18.6986L20.2535 19.0541ZM20.2535 21.5946V22.0946H20.7535V21.5946H20.2535ZM18.9419 21.5946V21.0946H18.4419V21.5946H18.9419ZM18.9419 23.6486H18.4419V24.8464L19.2935 24.0041L18.9419 23.6486ZM19.5977 23V22.5H19.3922L19.2461 22.6445L19.5977 23ZM20.906 23L21.406 22.9987L21.4047 22.5H20.906V23ZM20.9093 24.2432L21.2609 24.5987L21.4099 24.4514L21.4093 24.2419L20.9093 24.2432ZM20.1988 24.9459L19.8472 24.5905L18.9823 25.4459H20.1988V24.9459ZM22.2209 24.9459L22.6628 24.7119L22.5219 24.4459H22.2209V24.9459ZM22.8221 26.0811L22.3802 26.3151L22.4347 26.4179L22.5289 26.4861L22.8221 26.0811ZM25.4727 28L25.1795 28.405L25.4727 28.6173L25.7659 28.405L25.4727 28ZM28.1233 26.0811L28.4165 26.4861L28.5107 26.4179L28.5651 26.3151L28.1233 26.0811ZM28.7244 24.9459V24.4459H28.4234L28.2826 24.7119L28.7244 24.9459ZM30.8012 24.9459V25.4459H32.0177L31.1528 24.5905L30.8012 24.9459ZM30.0907 24.2432H29.5907V24.452L29.7391 24.5987L30.0907 24.2432ZM30.0907 23V22.5H29.5907V23H30.0907ZM31.4023 23L31.7539 22.6445L31.6078 22.5H31.4023V23ZM32.0581 23.6486L31.7065 24.0041L32.5581 24.8464V23.6486H32.0581ZM32.0581 21.5946H32.5581V21.0946H32.0581V21.5946ZM30.7465 21.5946H30.2465V22.0946H30.7465V21.5946ZM30.7465 19.0541L30.3949 18.6986L30.2465 18.8453V19.0541H30.7465ZM49 1L49.3516 1.35549L50.2165 0.5H49V1ZM35.1707 1V0.5H34.9651L34.819 0.64465L35.1707 1ZM31.9488 4.18919L31.5971 3.83384L31.4488 3.98059V4.18919H31.9488ZM31.9488 7.53367L32.3027 7.88693L32.4488 7.74053V7.53367H31.9488ZM31.4023 8.08108V8.58108H31.6097L31.7562 8.43434L31.4023 8.08108ZM28.1233 8.08108H27.6233V8.58108H28.1233V8.08108ZM28.1233 5.59459L27.7768 5.23405L27.6233 5.38161V5.59459H28.1233ZM30.036 3.75676L30.3825 4.1173L30.536 3.96974V3.75676H30.036ZM30.036 3.59459H30.536V3.09459H30.036V3.59459ZM28.6698 3.59459V3.09459H28.458L28.3107 3.24667L28.6698 3.59459ZM27.4128 4.89189V5.39189H27.6245L27.7719 5.23982L27.4128 4.89189ZM26.8663 4.89189H26.3663V5.39189H26.8663V4.89189ZM26.8663 4.24324L26.5147 3.88775L26.3663 4.03453V4.24324H26.8663ZM28.7244 2.40541V1.90541H28.5189L28.3728 2.04992L28.7244 2.40541ZM29.3802 2.40541V2.90541H29.8802V2.40541H29.3802ZM29.3802 2.24324H29.8802V2.03453L29.7318 1.88775L29.3802 2.24324ZM28.1233 1L28.4749 0.64451L28.3288 0.5H28.1233V1ZM27.2488 1V0.5H27.0392L26.8923 0.649497L27.2488 1ZM25.336 2.94595V3.44595H25.5457L25.6926 3.29645L25.336 2.94595ZM23.4779 2.94595V2.44595H23.2724L23.1263 2.59046L23.4779 2.94595ZM22.8221 3.59459L22.4705 3.2391L22.3221 3.38588V3.59459H22.8221ZM22.8221 8.08108V8.58108H23.3221V8.08108H22.8221ZM19.5977 8.08108L19.2461 8.43657L19.3922 8.58108H19.5977V8.08108ZM19.0512 7.54054H18.5512V7.74926L18.6996 7.89603L19.0512 7.54054ZM19.0512 4.18919H19.5512V3.98047L19.4028 3.8337L19.0512 4.18919ZM15.8267 1L16.1784 0.64451L16.0322 0.5H15.8267V1ZM20.964 9.48649L21.3156 9.131L20.464 8.28869V9.48649H20.964ZM22.2209 10.7297L21.8693 11.0852L22.0154 11.2297H22.2209V10.7297ZM24.243 10.7297V11.2297H24.4485L24.5946 11.0852L24.243 10.7297ZM25.5 9.48649L25.8516 9.131L25.5 8.78323L25.1484 9.131L25.5 9.48649ZM26.757 10.7297L26.4054 11.0852L26.5515 11.2297H26.757V10.7297ZM28.7791 10.7297V11.2297H28.9846L29.1307 11.0852L28.7791 10.7297ZM29.9814 9.54054H30.4814V8.34275L29.6298 9.18505L29.9814 9.54054ZM29.9814 16.6216L30.4428 16.8142L30.4814 16.7218V16.6216H29.9814ZM29.3802 17.8108L29.7427 18.1552L29.7796 18.1163L29.8075 18.0705L29.3802 17.8108ZM27.4128 19.7027L27.6469 20.1445L27.6995 20.1167L27.7441 20.0772L27.4128 19.7027ZM26.2105 20.2432L26.3579 20.721L26.3735 20.7162L26.3887 20.7104L26.2105 20.2432ZM25.4727 21L25.0966 21.3295L25.4855 21.7734L25.8595 21.3169L25.4727 21ZM24.7349 20.2432L24.9195 19.7786L24.9097 19.7747L24.8998 19.7712L24.7349 20.2432ZM23.5326 19.7027L23.202 20.0778L23.2326 20.1048L23.2672 20.1265L23.5326 19.7027ZM21.6198 17.8108L21.2013 18.0844L21.2226 18.1171L21.2488 18.146L21.6198 17.8108ZM20.964 16.6216H20.464V16.734L20.512 16.8356L20.964 16.6216ZM22.8221 15.8649L22.4705 15.5094L22.3221 15.6561V15.8649H22.8221ZM26.8116 11.9189V11.4189H26.6061L26.46 11.5634L26.8116 11.9189ZM28.1233 11.9189H28.6233V11.4189H28.1233V11.9189ZM28.1233 13.2162L28.4749 13.5717L28.6233 13.4249V13.2162H28.1233ZM24.1337 17.1622V17.6622H24.3392L24.4853 17.5177L24.1337 17.1622ZM22.8221 17.1622H22.3221V17.6622H22.8221V17.1622ZM1.64839 1.35549L19.9019 19.4095L20.6051 18.6986L2.35161 0.64451L1.64839 1.35549ZM19.7535 19.0541V21.5946H20.7535V19.0541H19.7535ZM20.2535 21.0946H18.9419V22.0946H20.2535V21.0946ZM18.4419 21.5946V23.6486H19.4419V21.5946H18.4419ZM19.2935 24.0041L19.9493 23.3555L19.2461 22.6445L18.5903 23.2932L19.2935 24.0041ZM19.5977 23.5H20.906V22.5H19.5977V23.5ZM20.406 23.0013L20.4093 24.2446L21.4093 24.2419L21.406 22.9987L20.406 23.0013ZM20.5577 23.8878L19.8472 24.5905L20.5504 25.3014L21.2609 24.5987L20.5577 23.8878ZM20.1988 25.4459H22.2209V24.4459H20.1988V25.4459ZM21.7791 25.18L22.3802 26.3151L23.264 25.8471L22.6628 24.7119L21.7791 25.18ZM22.5289 26.4861L25.1795 28.405L25.7659 27.595L23.1153 25.6761L22.5289 26.4861ZM25.7659 28.405L28.4165 26.4861L27.83 25.6761L25.1795 27.595L25.7659 28.405ZM28.5651 26.3151L29.1663 25.18L28.2826 24.7119L27.6814 25.8471L28.5651 26.3151ZM28.7244 25.4459H30.8012V24.4459H28.7244V25.4459ZM31.1528 24.5905L30.4423 23.8878L29.7391 24.5987L30.4496 25.3014L31.1528 24.5905ZM30.5907 24.2432V23H29.5907V24.2432H30.5907ZM30.0907 23.5H31.4023V22.5H30.0907V23.5ZM31.0507 23.3555L31.7065 24.0041L32.4097 23.2932L31.7539 22.6445L31.0507 23.3555ZM32.5581 23.6486V21.5946H31.5581V23.6486H32.5581ZM32.0581 21.0946H30.7465V22.0946H32.0581V21.0946ZM31.2465 21.5946V19.0541H30.2465V21.5946H31.2465ZM31.0981 19.4095L49.3516 1.35549L48.6484 0.64451L30.3949 18.6986L31.0981 19.4095ZM49 0.5H35.1707V1.5H49V0.5ZM34.819 0.64465L31.5971 3.83384L32.3006 4.54454L35.5224 1.35535L34.819 0.64465ZM31.4488 4.18919V7.53367H32.4488V4.18919H31.4488ZM31.595 7.1804L31.0485 7.72782L31.7562 8.43434L32.3027 7.88693L31.595 7.1804ZM31.4023 7.58108H28.1233V8.58108H31.4023V7.58108ZM28.6233 8.08108V5.59459H27.6233V8.08108H28.6233ZM28.4697 5.95514L30.3825 4.1173L29.6896 3.39621L27.7768 5.23405L28.4697 5.95514ZM30.536 3.75676V3.59459H29.536V3.75676H30.536ZM30.036 3.09459H28.6698V4.09459H30.036V3.09459ZM28.3107 3.24667L27.0537 4.54396L27.7719 5.23982L29.0289 3.94252L28.3107 3.24667ZM27.4128 4.39189H26.8663V5.39189H27.4128V4.39189ZM27.3663 4.89189V4.24324H26.3663V4.89189H27.3663ZM27.2179 4.59873L29.076 2.7609L28.3728 2.04992L26.5147 3.88775L27.2179 4.59873ZM28.7244 2.90541H29.3802V1.90541H28.7244V2.90541ZM29.8802 2.40541V2.24324H28.8802V2.40541H29.8802ZM29.7318 1.88775L28.4749 0.64451L27.7717 1.35549L29.0286 2.59873L29.7318 1.88775ZM28.1233 0.5H27.2488V1.5H28.1233V0.5ZM26.8923 0.649497L24.9795 2.59544L25.6926 3.29645L27.6054 1.3505L26.8923 0.649497ZM25.336 2.44595H23.4779V3.44595H25.336V2.44595ZM23.1263 2.59046L22.4705 3.2391L23.1737 3.95008L23.8295 3.30144L23.1263 2.59046ZM22.3221 3.59459V8.08108H23.3221V3.59459H22.3221ZM22.8221 7.58108H19.5977V8.58108H22.8221V7.58108ZM19.9493 7.72559L19.4028 7.18505L18.6996 7.89603L19.2461 8.43657L19.9493 7.72559ZM19.5512 7.54054V4.18919H18.5512V7.54054H19.5512ZM19.4028 3.8337L16.1784 0.64451L15.4751 1.35549L18.6996 4.54468L19.4028 3.8337ZM15.8267 0.5H2V1.5H15.8267V0.5ZM20.6123 9.84198L21.8693 11.0852L22.5725 10.3742L21.3156 9.131L20.6123 9.84198ZM22.2209 11.2297H24.243V10.2297H22.2209V11.2297ZM24.5946 11.0852L25.8516 9.84198L25.1484 9.131L23.8914 10.3742L24.5946 11.0852ZM25.1484 9.84198L26.4054 11.0852L27.1086 10.3742L25.8516 9.131L25.1484 9.84198ZM26.757 11.2297H28.7791V10.2297H26.757V11.2297ZM29.1307 11.0852L30.333 9.89603L29.6298 9.18505L28.4275 10.3742L29.1307 11.0852ZM29.4814 9.54054V16.6216H30.4814V9.54054H29.4814ZM29.52 16.429C29.3254 16.895 29.2066 17.1338 28.953 17.5511L29.8075 18.0705C30.0899 17.6059 30.231 17.3216 30.4428 16.8142L29.52 16.429ZM29.0178 17.4664C28.2811 18.2418 27.8588 18.6407 27.0815 19.3282L27.7441 20.0772C28.5395 19.3736 28.9831 18.9546 29.7427 18.1552L29.0178 17.4664ZM27.1787 19.2609C26.8719 19.4234 26.8132 19.4782 26.0323 19.7761L26.3887 20.7104C27.2251 20.3913 27.3251 20.315 27.6469 20.1445L27.1787 19.2609ZM26.063 19.7655C25.8471 19.8321 25.6778 20.0008 25.5646 20.121C25.4325 20.2612 25.2739 20.4537 25.0859 20.6831L25.8595 21.3169C26.0543 21.079 26.1891 20.9164 26.2925 20.8067C26.3434 20.7527 26.3761 20.7229 26.3954 20.7077C26.417 20.6906 26.4025 20.7072 26.3579 20.721L26.063 19.7655ZM25.8488 20.6705C25.6637 20.4592 25.5019 20.2725 25.3724 20.1351C25.3072 20.0659 25.2414 19.9996 25.1776 19.9442C25.1219 19.8957 25.0318 19.8232 24.9195 19.7786L24.5503 20.7079C24.5005 20.6881 24.4866 20.6685 24.5216 20.699C24.5487 20.7225 24.5883 20.7611 24.6446 20.8208C24.7579 20.9411 24.9025 21.1079 25.0966 21.3295L25.8488 20.6705ZM24.8998 19.7712C24.5062 19.6337 24.2934 19.548 24.1507 19.4805C24.0143 19.4159 23.9368 19.3659 23.7979 19.2789L23.2672 20.1265C23.4004 20.2099 23.5255 20.2909 23.7229 20.3844C23.914 20.4748 24.1663 20.5742 24.57 20.7153L24.8998 19.7712ZM23.8632 19.3276C23.1027 18.6574 22.6964 18.2564 21.9907 17.4756L21.2488 18.146C21.9794 18.9545 22.4126 19.3821 23.202 20.0778L23.8632 19.3276ZM22.0383 17.5372C21.7637 17.1173 21.637 16.8748 21.4159 16.4077L20.512 16.8356C20.746 17.3299 20.8945 17.6151 21.2013 18.0844L22.0383 17.5372ZM21.464 16.6216V9.48649H20.464V16.6216H21.464ZM23.1737 16.2204L27.1632 12.2744L26.46 11.5634L22.4705 15.5094L23.1737 16.2204ZM26.8116 12.4189H28.1233V11.4189H26.8116V12.4189ZM27.6233 11.9189V13.2162H28.6233V11.9189H27.6233ZM27.7717 12.8607L23.7821 16.8067L24.4853 17.5177L28.4749 13.5717L27.7717 12.8607ZM24.1337 16.6622H22.8221V17.6622H24.1337V16.6622ZM23.3221 17.1622V15.8649H22.3221V17.1622H23.3221Z" fill="#D01765"/>
<path d="M61.9824 9.67578L57.7344 22H55.166L60.5176 7.78125H62.1582L61.9824 9.67578ZM65.5371 22L61.2793 9.67578L61.0938 7.78125H62.7441L68.1152 22H65.5371ZM65.332 16.7266V18.6699H57.5977V16.7266H65.332ZM69.707 7.78125H74.7363C75.8171 7.78125 76.7383 7.94401 77.5 8.26953C78.2617 8.59505 78.8444 9.07682 79.248 9.71484C79.6582 10.3464 79.8633 11.1276 79.8633 12.0586C79.8633 12.7682 79.7331 13.3932 79.4727 13.9336C79.2122 14.474 78.8444 14.9297 78.3691 15.3008C77.8939 15.6654 77.3275 15.9486 76.6699 16.1504L75.9277 16.5117H71.4062L71.3867 14.5684H74.7754C75.3613 14.5684 75.8496 14.4642 76.2402 14.2559C76.6309 14.0475 76.9238 13.7643 77.1191 13.4062C77.321 13.0417 77.4219 12.6315 77.4219 12.1758C77.4219 11.681 77.3242 11.2513 77.1289 10.8867C76.9401 10.5156 76.6471 10.2324 76.25 10.0371C75.8529 9.83529 75.3483 9.73438 74.7363 9.73438H72.1582V22H69.707V7.78125ZM77.8223 22L74.4824 15.6133L77.0508 15.6035L80.4395 21.873V22H77.8223ZM89.7852 18.3379C89.7852 18.0449 89.7396 17.7845 89.6484 17.5566C89.5638 17.3288 89.4108 17.1204 89.1895 16.9316C88.9681 16.7428 88.6556 16.5605 88.252 16.3848C87.8548 16.2025 87.347 16.0169 86.7285 15.8281C86.0514 15.6198 85.4264 15.3887 84.8535 15.1348C84.2871 14.8743 83.7923 14.5749 83.3691 14.2363C82.946 13.8913 82.6172 13.4974 82.3828 13.0547C82.1484 12.6055 82.0312 12.0879 82.0312 11.502C82.0312 10.9225 82.1517 10.3952 82.3926 9.91992C82.64 9.44466 82.9883 9.03451 83.4375 8.68945C83.8932 8.33789 84.4303 8.06771 85.0488 7.87891C85.6673 7.68359 86.3509 7.58594 87.0996 7.58594C88.1543 7.58594 89.0625 7.78125 89.8242 8.17188C90.5924 8.5625 91.1816 9.08659 91.5918 9.74414C92.0085 10.4017 92.2168 11.1276 92.2168 11.9219H89.7852C89.7852 11.4531 89.6842 11.0397 89.4824 10.6816C89.2871 10.3171 88.9876 10.0306 88.584 9.82227C88.1868 9.61393 87.6823 9.50977 87.0703 9.50977C86.4909 9.50977 86.0091 9.59766 85.625 9.77344C85.2409 9.94922 84.9544 10.1868 84.7656 10.4863C84.5768 10.7858 84.4824 11.1243 84.4824 11.502C84.4824 11.7689 84.5443 12.013 84.668 12.2344C84.7917 12.4492 84.9805 12.651 85.2344 12.8398C85.4883 13.0221 85.8073 13.1947 86.1914 13.3574C86.5755 13.5202 87.028 13.6764 87.5488 13.8262C88.3366 14.0605 89.0234 14.321 89.6094 14.6074C90.1953 14.8874 90.6836 15.2064 91.0742 15.5645C91.4648 15.9225 91.7578 16.3294 91.9531 16.7852C92.1484 17.2344 92.2461 17.7454 92.2461 18.3184C92.2461 18.9173 92.1257 19.4577 91.8848 19.9395C91.6439 20.4147 91.2988 20.8216 90.8496 21.1602C90.4069 21.4922 89.873 21.7493 89.248 21.9316C88.6296 22.1074 87.9395 22.1953 87.1777 22.1953C86.4941 22.1953 85.8203 22.1042 85.1562 21.9219C84.4987 21.7396 83.8997 21.4629 83.3594 21.0918C82.819 20.7142 82.3893 20.2454 82.0703 19.6855C81.7513 19.1191 81.5918 18.4583 81.5918 17.7031H84.043C84.043 18.1654 84.1211 18.5592 84.2773 18.8848C84.4401 19.2103 84.6647 19.4772 84.9512 19.6855C85.2376 19.8874 85.5697 20.0371 85.9473 20.1348C86.3314 20.2324 86.7415 20.2812 87.1777 20.2812C87.7507 20.2812 88.2292 20.1999 88.6133 20.0371C89.0039 19.8743 89.2969 19.6465 89.4922 19.3535C89.6875 19.0605 89.7852 18.722 89.7852 18.3379ZM100.264 7.78125V22H97.832V7.78125H100.264ZM104.727 7.78125V9.73438H93.4082V7.78125H104.727ZM117.666 14.5V15.2812C117.666 16.3555 117.526 17.319 117.246 18.1719C116.966 19.0247 116.566 19.7507 116.045 20.3496C115.531 20.9486 114.912 21.4076 114.189 21.7266C113.467 22.0391 112.666 22.1953 111.787 22.1953C110.915 22.1953 110.117 22.0391 109.395 21.7266C108.678 21.4076 108.057 20.9486 107.529 20.3496C107.002 19.7507 106.592 19.0247 106.299 18.1719C106.012 17.319 105.869 16.3555 105.869 15.2812V14.5C105.869 13.4258 106.012 12.4655 106.299 11.6191C106.585 10.7663 106.989 10.0404 107.51 9.44141C108.037 8.83594 108.659 8.37695 109.375 8.06445C110.098 7.74544 110.895 7.58594 111.768 7.58594C112.646 7.58594 113.447 7.74544 114.17 8.06445C114.893 8.37695 115.514 8.83594 116.035 9.44141C116.556 10.0404 116.956 10.7663 117.236 11.6191C117.523 12.4655 117.666 13.4258 117.666 14.5ZM115.215 15.2812V14.4805C115.215 13.6862 115.137 12.9863 114.98 12.3809C114.831 11.7689 114.606 11.2578 114.307 10.8477C114.014 10.431 113.652 10.1185 113.223 9.91016C112.793 9.69531 112.308 9.58789 111.768 9.58789C111.227 9.58789 110.745 9.69531 110.322 9.91016C109.899 10.1185 109.538 10.431 109.238 10.8477C108.945 11.2578 108.721 11.7689 108.564 12.3809C108.408 12.9863 108.33 13.6862 108.33 14.4805V15.2812C108.33 16.0755 108.408 16.7786 108.564 17.3906C108.721 18.0026 108.949 18.5202 109.248 18.9434C109.554 19.36 109.919 19.6758 110.342 19.8906C110.765 20.099 111.247 20.2031 111.787 20.2031C112.334 20.2031 112.819 20.099 113.242 19.8906C113.665 19.6758 114.023 19.36 114.316 18.9434C114.609 18.5202 114.831 18.0026 114.98 17.3906C115.137 16.7786 115.215 16.0755 115.215 15.2812ZM125.479 7.78125V22H123.047V7.78125H125.479ZM129.941 7.78125V9.73438H118.623V7.78125H129.941ZM141.758 20.0566V22H131.885V20.0566H141.758ZM141.533 9.29492L132.793 22H131.152V20.4473L139.922 7.78125H141.533V9.29492ZM140.625 7.78125V9.73438H131.211V7.78125H140.625ZM146.338 7.78125V22H143.887V7.78125H146.338ZM154.883 7.78125L149.121 14.627L145.84 18.1035L145.41 15.6719L147.754 12.7812L151.895 7.78125H154.883ZM152.246 22L147.568 15.2617L149.258 13.5918L155.156 22H152.246ZM162.061 9.67578L157.812 22H155.244L160.596 7.78125H162.236L162.061 9.67578ZM165.615 22L161.357 9.67578L161.172 7.78125H162.822L168.193 22H165.615ZM165.41 16.7266V18.6699H157.676V16.7266H165.41Z" fill="#D01765"/>
</svg>
