<svg width="21" height="20" viewBox="0 0 21 20" fill="none" xmlns="http://www.w3.org/2000/svg">
<path d="M3.99213 1.26802C4.51731 0.999998 5.30504 1.00002 5.5676 1C5.71818 0.999991 7.66643 5.10807 7.66817 5.28861C7.6715 5.63374 7.66818 6.09274 7.66817 6.36076C7.66816 6.50546 6.8641 6.96002 6.09274 7.96899C5.91018 8.24334 5.90021 8.47021 6.09274 9.04114C8.47037 12.0419 9.84387 13.3753 12.3945 14.938H13.9699C14.2325 14.4019 15.5453 12.2576 15.8079 12.2576C16.0416 12.2576 20.1291 14.385 20.2716 14.6699C20.4142 14.9549 20.5342 16.0101 20.2716 16.5462C20.009 17.0823 19.2213 18.4225 18.171 18.6905C17.1207 18.9585 15.2827 19.2266 13.4447 18.6905C11.6068 18.1544 9.50619 16.5462 8.71848 16.0101C7.93076 15.474 2.2785 9.8167 1.62902 7.16487C1.49772 6.62878 1.39268 6.41023 1.36645 4.75253C1.34022 3.09483 3.46702 1.53607 3.99213 1.26802Z" fill="#D01765" stroke="#D01765"/>
</svg>
