<svg width="33" height="34" viewBox="0 0 33 34" fill="none" xmlns="http://www.w3.org/2000/svg">
<path fill-rule="evenodd" clip-rule="evenodd" d="M1.00593 16.5676C1.23712 7.97298 7.94286 1 16.5 1C25.0571 1 31.7629 7.97298 31.9941 16.5676C32.2318 25.4041 25.298 33 16.5 33C7.70195 33 0.768235 25.4041 1.00593 16.5676ZM16.5 6.18919C13.8747 6.22205 11.573 7.88641 11.3353 10.5135C11.077 13.3677 13.6478 15.6663 16.5 15.7027C19.3891 15.7395 22.0584 13.4047 21.7975 10.5135C21.5568 7.84628 19.1653 6.15583 16.5 6.18919ZM16.5 18.2973C12.1954 18.2973 7.03135 21.3243 7.03135 22.6216C7.03135 23.9189 12.1961 28.1851 16.5 28.2432C20.8039 28.3014 25.9685 23.9189 25.9685 22.6216C25.9685 21.3243 20.8039 18.2973 16.5 18.2973Z" fill="#D01765" stroke="#D01765"/>
</svg>
