<svg width="113" height="35" viewBox="0 0 113 35" fill="none" xmlns="http://www.w3.org/2000/svg">
<path d="M21.31 25H16.41L5.315 8.235V25H0.415V0.534998H5.315L16.41 17.335V0.534998H21.31V25ZM41.0623 10.44V14.57H26.2223V10.44H41.0623ZM51.4576 8.41C52.0876 7.52333 52.9509 6.78833 54.0476 6.205C55.1676 5.59833 56.4392 5.295 57.8626 5.295C59.5192 5.295 61.0126 5.70333 62.3426 6.52C63.6959 7.33667 64.7576 8.50333 65.5276 10.02C66.3209 11.5133 66.7176 13.2517 66.7176 15.235C66.7176 17.2183 66.3209 18.98 65.5276 20.52C64.7576 22.0367 63.6959 23.215 62.3426 24.055C61.0126 24.895 59.5192 25.315 57.8626 25.315C56.4392 25.315 55.1792 25.0233 54.0826 24.44C53.0092 23.8567 52.1342 23.1217 51.4576 22.235V34.24H46.5576V5.61H51.4576V8.41ZM61.7126 15.235C61.7126 14.0683 61.4676 13.065 60.9776 12.225C60.5109 11.3617 59.8809 10.7083 59.0876 10.265C58.3176 9.82167 57.4776 9.6 56.5676 9.6C55.6809 9.6 54.8409 9.83333 54.0476 10.3C53.2776 10.7433 52.6476 11.3967 52.1576 12.26C51.6909 13.1233 51.4576 14.1383 51.4576 15.305C51.4576 16.4717 51.6909 17.4867 52.1576 18.35C52.6476 19.2133 53.2776 19.8783 54.0476 20.345C54.8409 20.7883 55.6809 21.01 56.5676 21.01C57.4776 21.01 58.3176 20.7767 59.0876 20.31C59.8809 19.8433 60.5109 19.1783 60.9776 18.315C61.4676 17.4517 61.7126 16.425 61.7126 15.235ZM69.0183 15.235C69.0183 13.275 69.4033 11.5367 70.1733 10.02C70.9666 8.50333 72.0283 7.33667 73.3583 6.52C74.7116 5.70333 76.2166 5.295 77.8733 5.295C79.3199 5.295 80.5799 5.58667 81.6533 6.17C82.7499 6.75333 83.6249 7.48833 84.2783 8.375V5.61H89.2133V25H84.2783V22.165C83.6483 23.075 82.7733 23.8333 81.6533 24.44C80.5566 25.0233 79.2849 25.315 77.8383 25.315C76.2049 25.315 74.7116 24.895 73.3583 24.055C72.0283 23.215 70.9666 22.0367 70.1733 20.52C69.4033 18.98 69.0183 17.2183 69.0183 15.235ZM84.2783 15.305C84.2783 14.115 84.0449 13.1 83.5783 12.26C83.1116 11.3967 82.4816 10.7433 81.6883 10.3C80.8949 9.83333 80.0433 9.6 79.1333 9.6C78.2233 9.6 77.3833 9.82167 76.6133 10.265C75.8433 10.7083 75.2133 11.3617 74.7233 12.225C74.2566 13.065 74.0233 14.0683 74.0233 15.235C74.0233 16.4017 74.2566 17.4283 74.7233 18.315C75.2133 19.1783 75.8433 19.8433 76.6133 20.31C77.4066 20.7767 78.2466 21.01 79.1333 21.01C80.0433 21.01 80.8949 20.7883 81.6883 20.345C82.4816 19.8783 83.1116 19.225 83.5783 18.385C84.0449 17.5217 84.2783 16.495 84.2783 15.305ZM112.549 5.61L100.544 34.17H95.329L99.529 24.51L91.759 5.61H97.254L102.259 19.155L107.334 5.61H112.549Z" fill="#2D2D2D"/>
</svg>
