<svg width="42" height="29" viewBox="0 0 42 29" fill="none" xmlns="http://www.w3.org/2000/svg">
<path d="M1 23.1786V28H24.2025V23.1786C24.2025 23.1786 7.28388 23.1786 6.80062 23.1786V4.85714C6.80062 4.37498 7.28388 3.89286 7.76739 3.89286H37.7372C38.2205 3.8928 38.2205 1.01361 37.7372 1H6.80062C5.83373 1 4.38358 2.92855 4.38369 3.89286V23.1786H1Z" fill="#D01765"/>
<path fill-rule="evenodd" clip-rule="evenodd" d="M29.0363 8.71429C28.5528 8.71429 28.5528 27.0357 29.0363 27.0357C29.0362 27.5178 40.6376 27.5178 40.6376 27.0357C41.1208 27.0357 41.1208 8.71429 40.6376 8.71429C40.6376 8.23208 29.0363 8.23208 29.0363 8.71429ZM30.9699 10.6429V24.1429H38.704V10.6429H30.9699Z" fill="#D01765"/>
<path d="M1 23.1786V22.6786H0.5V23.1786H1ZM1 28H0.5V28.5H1V28ZM24.2025 28V28.5H24.7025V28H24.2025ZM24.2025 23.1786H24.7025V22.6786H24.2025V23.1786ZM6.80062 23.1786H6.30062V23.6786L6.80064 23.6786L6.80062 23.1786ZM37.7372 3.89286V4.39286L37.7373 4.39286L37.7372 3.89286ZM37.7372 1L37.7513 0.5H37.7372V1ZM4.38369 3.89286H4.88369V3.8928L4.38369 3.89286ZM4.38369 23.1786V23.6786H4.88369V23.1786H4.38369ZM29.0363 8.71429V9.21429H29.5363V8.71429H29.0363ZM29.0363 27.0357L29.5363 27.0358L29.5364 26.5357H29.0363V27.0357ZM40.6376 27.0357V26.5357H40.1376V27.0357H40.6376ZM40.6376 8.71429H40.1376V9.21429H40.6376V8.71429ZM30.9699 24.1429H30.4699V24.6429H30.9699V24.1429ZM30.9699 10.6429V10.1429H30.4699V10.6429H30.9699ZM38.704 10.6429H39.204V10.1429H38.704V10.6429ZM38.704 24.1429V24.6429H39.204V24.1429H38.704ZM0.5 23.1786V28H1.5V23.1786H0.5ZM1 28.5H24.2025V27.5H1V28.5ZM24.7025 28V23.1786H23.7025V28H24.7025ZM24.2025 23.1786C24.2025 22.6786 24.2024 22.6786 24.2023 22.6786C24.2021 22.6786 24.202 22.6786 24.2017 22.6786C24.2012 22.6786 24.2004 22.6786 24.1994 22.6786C24.1973 22.6786 24.1943 22.6786 24.1902 22.6786C24.1821 22.6786 24.1699 22.6786 24.1539 22.6786C24.1219 22.6786 24.0744 22.6786 24.0123 22.6786C23.8883 22.6786 23.7063 22.6786 23.4746 22.6786C23.011 22.6786 22.3482 22.6786 21.5514 22.6786C19.9577 22.6786 17.8278 22.6786 15.6828 22.6786C11.3927 22.6786 7.04224 22.6786 6.8006 22.6786L6.80064 23.6786C7.04226 23.6786 11.3927 23.6786 15.6828 23.6786C17.8278 23.6786 19.9577 23.6786 21.5514 23.6786C22.3482 23.6786 23.011 23.6786 23.4746 23.6786C23.7063 23.6786 23.8883 23.6786 24.0123 23.6786C24.0744 23.6786 24.1219 23.6786 24.1539 23.6786C24.1699 23.6786 24.1821 23.6786 24.1902 23.6786C24.1943 23.6786 24.1973 23.6786 24.1994 23.6786C24.2004 23.6786 24.2012 23.6786 24.2017 23.6786C24.202 23.6786 24.2021 23.6786 24.2023 23.6786C24.2024 23.6786 24.2025 23.6786 24.2025 23.1786ZM7.30062 23.1786V4.85714H6.30062V23.1786H7.30062ZM7.30062 4.85714C7.30062 4.77909 7.34479 4.65892 7.4558 4.54819C7.56672 4.43754 7.68777 4.39286 7.76739 4.39286V3.39286C7.3635 3.39286 7.00116 3.58924 6.74958 3.84019C6.49808 4.09107 6.30062 4.45303 6.30062 4.85714H7.30062ZM7.76739 4.39286H37.7372V3.39286H7.76739V4.39286ZM37.7373 4.39286C38.0763 4.39282 38.2592 4.14021 38.3292 4.01841C38.4113 3.87581 38.4624 3.7067 38.497 3.55185C38.5682 3.23353 38.5997 2.83367 38.5997 2.45151C38.5997 2.06923 38.5682 1.66884 38.4972 1.34928C38.4626 1.19357 38.4117 1.02463 38.3309 0.881884C38.2626 0.761099 38.0851 0.509597 37.7513 0.500198L37.7232 1.4998C37.5102 1.4938 37.4385 1.33525 37.4607 1.37453C37.4705 1.39185 37.4952 1.45007 37.521 1.56621C37.5708 1.79032 37.5997 2.11228 37.5997 2.45151C37.5997 2.79086 37.5708 3.11165 37.5211 3.33363C37.4953 3.44892 37.471 3.50487 37.4624 3.51978C37.4419 3.55551 37.519 3.39288 37.7372 3.39286L37.7373 4.39286ZM37.7372 0.5H6.80062V1.5H37.7372V0.5ZM6.80062 0.5C6.40512 0.5 6.029 0.690149 5.72281 0.910699C5.40536 1.13936 5.10165 1.44511 4.83949 1.77198C4.57649 2.09987 4.34352 2.46372 4.1741 2.81863C4.00955 3.16332 3.88365 3.54361 3.88369 3.89292L4.88369 3.8928C4.88368 3.75995 4.939 3.53757 5.07654 3.24943C5.2092 2.97154 5.39918 2.67243 5.61957 2.39765C5.84079 2.12184 6.0809 1.88518 6.30729 1.72211C6.54494 1.55092 6.71267 1.5 6.80062 1.5V0.5ZM3.88369 3.89286V23.1786H4.88369V3.89286H3.88369ZM4.38369 22.6786H1V23.6786H4.38369V22.6786ZM29.0363 8.21429C28.8148 8.21429 28.6801 8.347 28.6295 8.40799C28.5751 8.47339 28.545 8.53998 28.5296 8.57771C28.4968 8.65783 28.4758 8.74716 28.4608 8.82338C28.4291 8.9839 28.4028 9.2017 28.3797 9.45648C28.3331 9.97143 28.295 10.6981 28.2647 11.5594C28.2039 13.285 28.1737 15.5815 28.1737 17.875C28.1737 20.1685 28.2039 22.465 28.2647 24.1906C28.295 25.0519 28.3331 25.7786 28.3797 26.2935C28.4028 26.5483 28.4291 26.7661 28.4608 26.9266C28.4758 27.0028 28.4968 27.0922 28.5296 27.1723C28.545 27.21 28.5751 27.2766 28.6295 27.342C28.6801 27.403 28.8148 27.5357 29.0363 27.5357V26.5357C29.2427 26.5357 29.3625 26.6595 29.3985 26.7029C29.4383 26.7506 29.454 26.791 29.4553 26.794C29.4597 26.8048 29.4533 26.7913 29.4419 26.7333C29.4206 26.6254 29.3979 26.4496 29.3756 26.2034C29.3316 25.7164 29.2942 25.0117 29.264 24.1554C29.2039 22.4457 29.1737 20.1619 29.1737 17.875C29.1737 15.5881 29.2039 13.3043 29.264 11.5946C29.2942 10.7383 29.3316 10.0336 29.3756 9.54659C29.3979 9.30039 29.4206 9.12457 29.4419 9.01671C29.4533 8.95874 29.4597 8.94518 29.4553 8.95597C29.454 8.95904 29.4383 8.99936 29.3985 9.04714C29.3625 9.09051 29.2427 9.21429 29.0363 9.21429V8.21429ZM28.5363 27.0356C28.5362 27.3202 28.745 27.4652 28.799 27.5C28.8773 27.5503 28.9601 27.5799 29.0184 27.598C29.1422 27.6364 29.2985 27.6653 29.4642 27.6889C29.8032 27.7372 30.2735 27.7758 30.8213 27.8061C31.9214 27.8671 33.3815 27.8973 34.8369 27.8973C36.2922 27.8973 37.7524 27.8671 38.8525 27.8061C39.4003 27.7758 39.8707 27.7372 40.2096 27.6889C40.3753 27.6653 40.5316 27.6364 40.6554 27.598C40.7137 27.5799 40.7966 27.5503 40.8748 27.5C40.9288 27.4652 41.1376 27.3203 41.1376 27.0357H40.1376C40.1376 26.7812 40.3237 26.6655 40.3337 26.659C40.3681 26.6369 40.3858 26.6346 40.3591 26.6429C40.313 26.6572 40.22 26.6773 40.0685 26.6989C39.773 26.741 39.337 26.7777 38.7972 26.8077C37.7221 26.8672 36.2819 26.8973 34.8369 26.8973C33.3919 26.8973 31.9517 26.8672 30.8766 26.8077C30.3368 26.7777 29.9008 26.741 29.6053 26.6989C29.4538 26.6773 29.3609 26.6572 29.3148 26.6429C29.2881 26.6346 29.3058 26.6369 29.3402 26.659C29.3503 26.6655 29.5364 26.7813 29.5363 27.0358L28.5363 27.0356ZM40.6376 27.5357C40.8591 27.5357 40.9938 27.4029 41.0445 27.3419C41.0988 27.2765 41.1289 27.2099 41.1443 27.1722C41.177 27.0921 41.1981 27.0028 41.2131 26.9266C41.2447 26.7661 41.2711 26.5483 41.2941 26.2935C41.3407 25.7786 41.3788 25.0519 41.4091 24.1906C41.4698 22.465 41.5 20.1685 41.5 17.875C41.5 15.5815 41.4698 13.285 41.4091 11.5594C41.3788 10.6981 41.3407 9.97144 41.2941 9.4565C41.2711 9.20172 41.2447 8.98393 41.2131 8.82343C41.1981 8.74721 41.177 8.6579 41.1443 8.57779C41.1289 8.54007 41.0988 8.47348 41.0445 8.40808C40.9938 8.34712 40.8591 8.21429 40.6376 8.21429V9.21429C40.4311 9.21429 40.3112 9.09039 40.2752 9.04705C40.2355 8.99926 40.2198 8.95895 40.2186 8.95589C40.2142 8.94512 40.2205 8.95869 40.2319 9.01666C40.2532 9.12454 40.2759 9.30037 40.2982 9.54657C40.3422 10.0336 40.3796 10.7383 40.4097 11.5946C40.4698 13.3043 40.5 15.5881 40.5 17.875C40.5 20.1619 40.4698 22.4457 40.4097 24.1554C40.3796 25.0117 40.3422 25.7164 40.2982 26.2034C40.2759 26.4496 40.2532 26.6255 40.2319 26.7333C40.2205 26.7913 40.2142 26.8049 40.2186 26.7941C40.2198 26.791 40.2355 26.7507 40.2752 26.7029C40.3112 26.6596 40.4311 26.5357 40.6376 26.5357V27.5357ZM41.1376 8.71429C41.1376 8.42974 40.9289 8.2848 40.8749 8.25004C40.7966 8.19968 40.7138 8.17009 40.6555 8.15199C40.5316 8.11356 40.3753 8.08468 40.2096 8.06106C39.8707 8.01276 39.4004 7.97417 38.8525 7.94381C37.7524 7.88284 36.2923 7.85263 34.8369 7.85263C33.3816 7.85263 31.9215 7.88284 30.8213 7.94381C30.2735 7.97417 29.8032 8.01276 29.4643 8.06106C29.2985 8.08468 29.1422 8.11356 29.0184 8.15199C28.9601 8.17009 28.8772 8.19968 28.799 8.25004C28.745 8.2848 28.5363 8.42974 28.5363 8.71429H29.5363C29.5363 8.96869 29.3503 9.08443 29.3402 9.09094C29.3058 9.11305 29.2882 9.11533 29.3148 9.10705C29.3609 9.09275 29.4539 9.07265 29.6053 9.05106C29.9009 9.00895 30.3369 8.9722 30.8767 8.94228C31.9518 8.8827 33.392 8.85263 34.8369 8.85263C36.2819 8.85263 37.7221 8.8827 38.7972 8.94228C39.337 8.9722 39.773 9.00895 40.0685 9.05106C40.22 9.07265 40.313 9.09275 40.3591 9.10705C40.3857 9.11533 40.368 9.11305 40.3337 9.09094C40.3236 9.08443 40.1376 8.96869 40.1376 8.71429H41.1376ZM30.9699 11.1429H38.704V10.1429H30.9699V11.1429ZM38.204 10.6429V24.1429H39.204V10.6429H38.204ZM38.704 23.6429H30.9699V24.6429H38.704V23.6429ZM30.4699 10.6429V24.1429H31.4699V10.6429H30.4699Z" fill="#D01765"/>
</svg>
